<?xml version="1.0" encoding="UTF-8" standalone="no"?>
<!DOCTYPE svg PUBLIC "-//W3C//DTD SVG 1.1//EN" "http://www.w3.org/Graphics/SVG/1.1/DTD/svg11.dtd">
<svg width="100%" height="100%" viewBox="0 0 1158 258" version="1.1" xmlns="http://www.w3.org/2000/svg" xmlns:xlink="http://www.w3.org/1999/xlink" xml:space="preserve" xmlns:serif="http://www.serif.com/" style="fill-rule:evenodd;clip-rule:evenodd;stroke-linecap:round;stroke-linejoin:round;stroke-miterlimit:1.5;">
    <g transform="matrix(1,0,0,1,-136,-4035)">
        <g id="Artboard2" transform="matrix(1,0,0,1,-0.134117,1498.96)">
            <rect x="9.134" y="2447.08" width="2740.46" height="1393.39" style="fill:none;"/>
            <g transform="matrix(0.97823,0,0,-0.97823,399.596,2711.51)">
                <path d="M0.004,0.336C-0.113,0.543 2.023,11.961 4.758,25.711C7.488,39.461 11.801,61.176 14.336,73.961L18.949,97.211L67.68,97.211C121.41,97.211 119.277,97.328 125.359,94.086C132.43,90.316 137.664,81.406 137.664,73.137C137.664,70.356 134.195,51.078 132.863,46.461C129.773,35.75 120.844,25.836 110.453,21.578C104.109,18.981 104.469,19 65.578,18.981L29.246,18.965L28.742,16.59C28.465,15.281 27.609,11.008 26.844,7.09L25.449,-0.035L12.836,-0.035C5.898,-0.035 0.125,0.133 0.004,0.34L0.004,0.336ZM104.68,44.723C106.828,45.832 107.367,47.27 109.363,57.211C111.34,67.078 111.52,69.285 110.453,70.742C109.766,71.684 108.73,71.715 74.703,71.848C55.43,71.922 39.664,71.844 39.664,71.672C39.664,71.188 34.645,45.824 34.352,44.836C34.109,44.012 35.977,43.961 68.652,43.961C98.566,43.961 103.41,44.066 104.68,44.723ZM440.664,0.352C440.664,0.59 441.562,5.25 442.664,10.711C443.762,16.172 444.664,20.715 444.664,20.801C444.664,20.891 465.082,20.965 490.039,20.965C520.484,20.969 536.043,21.145 537.324,21.5C539.66,22.149 542.77,24.871 543.902,27.262C545.008,29.586 544.977,33.024 543.84,34.949C543.344,35.793 542.016,36.93 540.891,37.473C538.918,38.43 537.703,38.461 506.129,38.469C470.824,38.473 470.984,38.461 465.43,41.184C463.992,41.887 461.574,43.766 460.051,45.359C455.434,50.199 453.676,54.664 453.668,61.563C453.66,67.453 454.344,70.402 456.941,75.723C462.605,87.32 473.727,95.375 486.254,96.945C490.422,97.469 583.238,97.719 583.75,97.207C583.891,97.07 583.09,92.344 581.969,86.707L579.938,76.461L534.676,76.461C506.332,76.457 488.746,76.274 487.629,75.961C486.648,75.688 484.875,74.633 483.688,73.617C478.73,69.375 478.406,63.121 482.992,60.113C484.273,59.274 486.695,59.195 518.641,58.961C550.324,58.731 553.102,58.645 555.414,57.793C562.555,55.16 567.465,50.137 569.977,42.887C571.457,38.617 571.23,30.836 569.477,25.711C565.41,13.844 556.285,5.098 544.078,1.367L540.414,0.25L490.539,0.082C462.656,-0.008 440.664,0.109 440.664,0.352ZM614.531,0.524C601.91,2.149 593.688,11.699 593.668,24.754C593.664,27.945 595.074,35.899 600.383,62.629C604.078,81.238 607.242,96.688 607.414,96.961C607.734,97.484 721.664,97.715 721.664,97.192C721.664,97.043 721.34,95.297 720.945,93.316C720.551,91.336 719.758,87.238 719.188,84.211C718.617,81.188 718.035,78.207 717.898,77.59L717.645,76.469L628.926,76.211L627.59,69.211C626.855,65.363 626.137,61.481 625.992,60.586L625.727,58.961L668.195,58.961C708.316,58.961 710.66,58.914 710.641,58.086C710.625,57.606 709.773,53.051 708.742,47.961L706.867,38.711L664.297,38.586C624.309,38.465 621.711,38.402 621.457,37.586C621.305,37.106 620.637,33.91 619.973,30.488C618.695,23.914 618.801,22.461 620.605,21.492C621.281,21.129 635.547,20.961 665.629,20.961C701.945,20.961 709.664,20.844 709.664,20.297C709.664,19.699 706.57,3.875 705.91,1.086L705.645,-0.039L661.777,0.024C637.652,0.059 616.391,0.285 614.531,0.524ZM752.395,0.484C741.844,1.863 734.289,8.52 731.934,18.508C730.68,23.824 730.98,26.949 734.43,44.547C739.148,68.59 739.453,69.965 740.824,73.34C745.137,83.953 755.344,92.801 767.094,96.109C770.848,97.164 771.656,97.188 815.039,97.344C857.223,97.5 859.16,97.469 859.141,96.609C859.125,96.117 858.047,90.426 856.742,83.961L854.367,72.211L811.391,71.961C764.305,71.688 766.934,71.875 765.461,68.719C765.074,67.891 763.035,58.477 760.93,47.797C757.332,29.555 757.148,28.309 757.895,27.172C758.328,26.508 758.738,25.91 758.801,25.844C758.863,25.781 778.281,25.609 801.953,25.469L844.996,25.211L844.355,21.961C842.719,13.633 840.164,0.363 840.164,0.176C840.164,-0.215 755.453,0.086 752.395,0.484ZM146.164,1.086C146.164,1.43 147.633,9.137 149.43,18.211C151.227,27.289 155.391,48.324 158.68,64.961C161.969,81.602 164.781,95.727 164.926,96.359L165.191,97.504L214.301,97.348C260.215,97.199 263.594,97.129 266.164,96.277C275.195,93.289 281.43,86.762 283.219,78.426C284.41,72.867 283.82,69.367 270.359,1.836L270.082,0.461L244.145,0.461L244.391,1.586C245.086,4.754 248.164,20.234 248.164,20.57C248.164,20.785 231.852,20.961 211.914,20.961C191.977,20.961 175.664,20.828 175.664,20.668C175.664,20.359 172.348,3.539 171.902,1.586L171.645,0.461L158.902,0.461C149.043,0.461 146.164,0.606 146.164,1.086ZM255.078,55.086C256.512,62.305 257.684,68.504 257.676,68.859C257.668,69.215 257.109,70.059 256.438,70.734L255.207,71.961L185.91,71.961L183.023,57.336C181.434,49.293 180.141,42.543 180.148,42.336C180.156,42.133 196.434,41.961 216.316,41.961L252.469,41.961L255.078,55.086ZM295.336,1.586C295.488,2.207 299.793,23.637 304.898,49.211C310.004,74.789 314.309,96.117 314.461,96.609C314.73,97.461 316.996,97.496 363.578,97.344C408.355,97.195 412.66,97.109 415.375,96.305C419.742,95.016 423.07,93.059 426.164,89.965C430.758,85.371 433.164,79.566 433.164,73.078C433.164,68.883 429.449,50.715 427.621,45.961C426.828,43.899 425.227,40.75 424.062,38.961C421.438,34.93 415.191,28.707 411.762,26.711C410.344,25.887 409.18,24.961 409.172,24.652C409.168,24.344 409.59,23.106 410.113,21.902C410.914,20.063 416.141,7.707 418.496,2.086L419.176,0.461L389.355,0.461L380.879,20.711L353.055,20.844C326.875,20.965 325.219,20.918 324.98,20.094C324.707,19.141 321.164,1.168 321.164,0.731C321.164,0.582 315.289,0.461 308.109,0.461L295.055,0.461L295.336,1.586ZM400.934,43.508C402.059,44.629 402.523,46.246 404.445,55.684C407.078,68.598 407.133,69.52 405.344,70.926C404.043,71.953 403.672,71.961 369.594,71.961C350.656,71.961 335.164,71.906 335.16,71.836C335.16,71.77 333.926,65.414 332.414,57.711C330.906,50.012 329.668,43.313 329.668,42.828C329.664,41.988 331.461,41.949 364.652,42.078L399.641,42.211L400.934,43.508Z" style="fill-rule:nonzero;"/>
            </g>
            <g transform="matrix(1,0,0,1,-804.992,1940.37)">
                <circle cx="1060.49" cy="721.384" r="95.42"/>
            </g>
            <g transform="matrix(-0.965926,-0.258819,0.354587,-1.32334,1244.51,3823.49)">
                <path d="M1256.8,577.193L1256.8,686.183" style="fill:none;stroke:white;stroke-width:1.67px;"/>
            </g>
            <g transform="matrix(0.412606,0.531954,-0.790169,0.612888,231.199,1608.17)">
                <path d="M1161.38,625.965L1352.21,625.965" style="fill:none;stroke:white;stroke-width:2.35px;"/>
            </g>
            <g transform="matrix(1,0,0,1.92884,-1001.3,1420.32)">
                <ellipse cx="1256.8" cy="643.618" rx="95.42" ry="17.653" style="fill:none;stroke:white;stroke-width:1.3px;"/>
            </g>
            <g transform="matrix(-0.389432,0.921055,-0.921055,-0.389432,1337.04,1741.63)">
                <circle cx="1268.67" cy="637.84" r="11.875" style="fill:url(#_Radial1);stroke:white;stroke-width:1px;"/>
            </g>
        </g>
    </g>
    <defs>
        <radialGradient id="_Radial1" cx="0" cy="0" r="1" gradientUnits="userSpaceOnUse" gradientTransform="matrix(56.5726,49.6607,-49.6607,56.5726,1256.18,623.451)"><stop offset="0" style="stop-color:white;stop-opacity:1"/><stop offset="0.28" style="stop-color:white;stop-opacity:1"/><stop offset="0.3" style="stop-color:black;stop-opacity:1"/><stop offset="1" style="stop-color:black;stop-opacity:1"/></radialGradient>
    </defs>
</svg>
